<svg width="43" height="43" viewBox="0 0 43 43" fill="none" xmlns="http://www.w3.org/2000/svg">
<g id="globe-solid 1" clip-path="url(#clip0_9_130)">
<path id="Vector" d="M29.5625 21.5C29.5625 23.3645 29.4617 25.1617 29.2854 26.875H13.7146C13.5299 25.1617 13.4375 23.3645 13.4375 21.5C13.4375 19.6355 13.5383 17.8383 13.7146 16.125H29.2854C29.4701 17.8383 29.5625 19.6355 29.5625 21.5ZM31.9812 16.125H42.3197C42.7648 17.8467 43 19.6439 43 21.5C43 23.3561 42.7648 25.1533 42.3197 26.875H31.9812C32.1576 25.1449 32.25 23.3477 32.25 21.5C32.25 19.6523 32.1576 17.8551 31.9812 16.125ZM41.4379 13.4375H31.6369C30.7971 8.0709 29.1342 3.57773 26.9926 0.705469C33.5686 2.44395 38.9184 7.21426 41.4295 13.4375H41.4379ZM28.9158 13.4375H14.0842C14.5965 10.3805 15.3859 7.67617 16.3518 5.48418C17.2336 3.50215 18.2162 2.06602 19.1652 1.15898C20.1059 0.26875 20.8869 0 21.5 0C22.1131 0 22.8941 0.26875 23.8348 1.15898C24.7838 2.06602 25.7664 3.50215 26.6482 5.48418C27.6225 7.66777 28.4035 10.3721 28.9158 13.4375ZM11.3631 13.4375H1.56211C4.08164 7.21426 9.42305 2.44395 16.0074 0.705469C13.8658 3.57773 12.2029 8.0709 11.3631 13.4375ZM0.680273 16.125H11.0188C10.8424 17.8551 10.75 19.6523 10.75 21.5C10.75 23.3477 10.8424 25.1449 11.0188 26.875H0.680273C0.235156 25.1533 0 23.3561 0 21.5C0 19.6439 0.235156 17.8467 0.680273 16.125ZM16.3518 37.5074C15.3775 35.3238 14.5965 32.6195 14.0842 29.5625H28.9158C28.4035 32.6195 27.6141 35.3238 26.6482 37.5074C25.7664 39.4895 24.7838 40.9256 23.8348 41.8326C22.8941 42.7313 22.1131 43 21.5 43C20.8869 43 20.1059 42.7313 19.1652 41.841C18.2162 40.934 17.2336 39.4979 16.3518 37.5158V37.5074ZM11.3631 29.5625C12.2029 34.9291 13.8658 39.4223 16.0074 42.2945C9.42305 40.5561 4.08164 35.7857 1.56211 29.5625H11.3631ZM41.4379 29.5625C38.9184 35.7857 33.577 40.5561 27.001 42.2945C29.1426 39.4223 30.7971 34.9291 31.6453 29.5625H41.4379Z" fill="black" fill-opacity="0.5"/>
</g>
<defs>
<clipPath id="clip0_9_130">
<rect width="43" height="43" fill="white"/>
</clipPath>
</defs>
</svg>
