<svg width="49" height="43" viewBox="0 0 49 43" fill="none" xmlns="http://www.w3.org/2000/svg">
<g id="person-digging-solid 1" clip-path="url(#clip0_9_122)">
<path id="Vector" d="M17.4687 5.375C17.4687 4.30585 17.8935 3.28048 18.6495 2.52448C19.4055 1.76847 20.4308 1.34375 21.5 1.34375C22.5691 1.34375 23.5945 1.76847 24.3505 2.52448C25.1065 3.28048 25.5312 4.30585 25.5312 5.375C25.5312 6.44415 25.1065 7.46952 24.3505 8.22552C23.5945 8.98153 22.5691 9.40625 21.5 9.40625C20.4308 9.40625 19.4055 8.98153 18.6495 8.22552C17.8935 7.46952 17.4687 6.44415 17.4687 5.375ZM0.823034 18.0398C1.25135 17.0152 2.42714 16.5281 3.46014 16.9564L5.09784 17.6367L7.02108 14.4369C8.39003 12.1441 10.8592 10.75 13.5215 10.75C17.8383 10.75 21.668 13.5131 23.0369 17.6115L25.9428 26.3207L32.6027 29.1006L35.475 25.2709C36.0125 24.557 36.8691 24.1539 37.7594 24.1959C38.6496 24.2379 39.4642 24.7334 39.9262 25.4977L47.9887 38.9352C48.4842 39.7666 48.501 40.7996 48.0223 41.6395C47.5435 42.4793 46.6533 43 45.6875 43H24.1875C23.2553 43 22.3902 42.5213 21.9031 41.7234C21.416 40.9256 21.3656 39.943 21.7855 39.1115L23.1293 36.424C23.5828 35.517 24.515 34.9375 25.5312 34.9375H28.2187L30.1084 32.418L1.91483 20.677C0.890222 20.2486 0.403112 19.0729 0.831433 18.0398H0.823034ZM7.77694 25.7496L17.1832 29.7809C18.1742 30.2008 18.8125 31.175 18.8125 32.25V40.3125C18.8125 41.799 17.6115 43 16.125 43C14.6385 43 13.4375 41.799 13.4375 40.3125V34.0221L8.34803 31.8385L5.24061 41.1607C4.7703 42.5717 3.25018 43.3275 1.83925 42.8572C0.428308 42.3869 -0.327552 40.8668 0.134362 39.4643L4.16561 27.3705L5.08944 24.599L7.77694 25.7496Z" fill="black" fill-opacity="0.5"/>
</g>
<defs>
<clipPath id="clip0_9_122">
<rect width="48.375" height="43" fill="white"/>
</clipPath>
</defs>
</svg>
